<svg width="400" height="400" xmlns="http://www.w3.org/2000/svg">
  <defs>
    <pattern id="islamic-pattern" x="0" y="0" width="100" height="100" patternUnits="userSpaceOnUse">
      <g fill="none" stroke="#0E7A57" stroke-width="0.5" opacity="0.15">
        <!-- Octagonal star pattern -->
        <path d="M 50 10 L 65 25 L 65 35 L 75 35 L 90 50 L 75 65 L 75 75 L 65 75 L 50 90 L 35 75 L 35 65 L 25 65 L 10 50 L 25 35 L 25 25 Z"/>
        <circle cx="50" cy="50" r="30"/>
        <circle cx="50" cy="50" r="20"/>
        <line x1="50" y1="20" x2="50" y2="80"/>
        <line x1="20" y1="50" x2="80" y2="50"/>
        <line x1="30" y1="30" x2="70" y2="70"/>
        <line x1="70" y1="30" x2="30" y2="70"/>
      </g>
    </pattern>
  </defs>
  <rect width="400" height="400" fill="url(#islamic-pattern)"/>
</svg>
